<svg width="23" height="23" viewBox="0 0 23 23" fill="none" xmlns="http://www.w3.org/2000/svg">
<path fill-rule="evenodd" clip-rule="evenodd" d="M19.1273 3.84108C17.11 1.82144 14.4272 0.708704 11.5691 0.70752C5.67968 0.70752 0.886549 5.50052 0.88418 11.3915C0.88339 13.2747 1.37534 15.113 2.31041 16.7333L0.794556 22.27L6.45879 20.7842C8.01952 21.6355 9.77661 22.0842 11.5648 22.0847H11.5692C17.458 22.0847 22.2516 17.2913 22.2539 11.4001C22.2551 8.54498 21.1447 5.86059 19.1273 3.84108ZM11.5691 20.2802H11.5654C9.97191 20.2796 8.40908 19.8513 7.04536 19.0424L6.72122 18.8498L3.35997 19.7316L4.25714 16.4544L4.04591 16.1184C3.1569 14.7045 2.68746 13.0702 2.68825 11.3922C2.69009 6.49573 6.6741 2.51212 11.5726 2.51212C13.9447 2.5129 16.1746 3.43784 17.8512 5.11649C19.5279 6.79513 20.4507 9.0264 20.4499 11.3994C20.4478 16.2962 16.4641 20.2802 11.5691 20.2802Z" fill="white"/>
</svg>
