<svg width="11" height="11" viewBox="0 0 11 11" fill="none" xmlns="http://www.w3.org/2000/svg">
<path d="M8.61604 6.76033C8.86083 6.84956 10.1735 7.49523 10.4404 7.62894C10.7073 7.76265 10.8853 7.82938 10.9519 7.94072C11.0188 8.05219 11.0188 8.58664 10.7964 9.21033C10.5737 9.83388 9.50729 10.4031 8.99428 10.4798C8.53418 10.5485 7.95235 10.5772 7.31274 10.374C6.92489 10.2509 6.42768 10.0868 5.7907 9.81151C3.11263 8.65521 1.36344 5.95858 1.22999 5.78039L1.2276 5.77719C1.08554 5.58754 0.139893 4.32513 0.139893 3.01861C0.139893 1.70452 0.829513 1.05872 1.07417 0.791426C1.31896 0.524 1.60823 0.457275 1.78617 0.457275C1.96423 0.457275 2.14229 0.458855 2.29785 0.466619C2.46184 0.474779 2.68175 0.404501 2.89864 0.924875C3.12106 1.45959 3.65498 2.77369 3.72158 2.90727C3.78843 3.04085 3.83305 3.19681 3.74395 3.375C3.65498 3.55307 3.36558 3.92933 3.07657 4.28823C2.95813 4.4351 2.80388 4.56565 2.95944 4.83308C3.11526 5.10024 3.65104 5.97451 4.44463 6.68242C5.46445 7.59196 6.32463 7.87399 6.59166 8.00757C6.8587 8.14128 7.01425 8.11891 7.17008 7.94072C7.3259 7.76265 7.83746 7.16121 8.01552 6.89404C8.19332 6.62688 8.37152 6.67123 8.61604 6.76033Z" fill="#4713DC"/>
</svg>
